<?xml version="1.0" encoding="UTF-8"?>
<svg width="200px" height="200px" viewBox="0 0 200 200" version="1.1" xmlns="http://www.w3.org/2000/svg">
    <g fill="none" stroke="none" stroke-width="1" fill-rule="evenodd">
        <circle fill="#EDE7F6" cx="100" cy="100" r="100"/>
        
        <!-- Document with checkmark -->
        <g transform="translate(40, 30)">
            <rect fill="#FFFFFF" stroke="#673AB7" stroke-width="3" x="0" y="0" width="85" height="110" rx="6"/>
            <rect fill="#D1C4E9" x="10" y="15" width="65" height="10" rx="2"/>
            <rect fill="#D1C4E9" x="10" y="35" width="65" height="10" rx="2"/>
            <rect fill="#D1C4E9" x="10" y="55" width="65" height="10" rx="2"/>
            <rect fill="#D1C4E9" x="10" y="75" width="30" height="10" rx="2"/>
        </g>
        
        <!-- Stamp of approval -->
        <g transform="translate(100, 105)">
            <circle fill="#673AB7" cx="30" cy="30" r="30"/>
            <path d="M20,30 L27,37 L40,23" stroke="#FFFFFF" stroke-width="4" stroke-linecap="round" stroke-linejoin="round"/>
        </g>
        
        <!-- Person silhouette -->
        <g transform="translate(120, 30)">
            <circle fill="#673AB7" cx="20" cy="20" r="20"/>
            <circle fill="#FFFFFF" cx="20" cy="15" r="7"/>
            <path d="M10,45 C10,35 30,35 30,45" fill="#673AB7"/>
        </g>
        
        <!-- Levels of approval -->
        <g transform="translate(30, 150)">
            <rect fill="#673AB7" x="0" y="0" width="140" height="20" rx="4"/>
            <rect fill="#FFFFFF" opacity="0.8" x="5" y="5" width="30" height="10" rx="2"/>
            <rect fill="#FFFFFF" opacity="0.8" x="40" y="5" width="30" height="10" rx="2"/>
            <rect fill="#FFFFFF" opacity="0.8" x="75" y="5" width="30" height="10" rx="2"/>
            <rect fill="#FFFFFF" opacity="0.8" x="110" y="5" width="25" height="10" rx="2"/>
        </g>
    </g>
</svg>