<?xml version="1.0" encoding="UTF-8"?>
<svg width="200px" height="200px" viewBox="0 0 200 200" version="1.1" xmlns="http://www.w3.org/2000/svg">
    <g fill="none" stroke="none" stroke-width="1" fill-rule="evenodd">
        <circle fill="#E3F2FD" cx="100" cy="100" r="100"/>
        <circle stroke="#2196F3" stroke-width="3" cx="100" cy="100" r="80"/>
        <g transform="translate(50, 50)">
            <rect fill="#2196F3" x="0" y="0" width="100" height="80" rx="8"/>
            <rect fill="#FFFFFF" x="10" y="10" width="80" height="60" rx="4"/>
            <rect fill="#BBDEFB" x="20" y="20" width="60" height="8" rx="2"/>
            <rect fill="#BBDEFB" x="20" y="35" width="60" height="8" rx="2"/>
            <rect fill="#BBDEFB" x="20" y="50" width="60" height="8" rx="2"/>
        </g>
        <g transform="translate(40, 35)">
            <circle fill="#FFC107" cx="15" cy="15" r="15"/>
            <path d="M10,15 L15,20 L20,10" stroke="#FFFFFF" stroke-width="2" stroke-linecap="round" stroke-linejoin="round"/>
        </g>
        <g transform="translate(145, 35)">
            <circle fill="#4CAF50" cx="15" cy="15" r="15"/>
            <path d="M10,15 L15,20 L20,10" stroke="#FFFFFF" stroke-width="2" stroke-linecap="round" stroke-linejoin="round"/>
        </g>
        <g transform="translate(40, 150)">
            <circle fill="#F44336" cx="15" cy="15" r="15"/>
            <path d="M10,15 L15,20 L20,10" stroke="#FFFFFF" stroke-width="2" stroke-linecap="round" stroke-linejoin="round"/>
        </g>
        <g transform="translate(145, 150)">
            <circle fill="#9C27B0" cx="15" cy="15" r="15"/>
            <path d="M10,15 L15,20 L20,10" stroke="#FFFFFF" stroke-width="2" stroke-linecap="round" stroke-linejoin="round"/>
        </g>
    </g>
</svg>